<?xml version="1.0" standalone="no"?>
<!DOCTYPE svg PUBLIC "-//W3C//DTD SVG 20010904//EN"
 "http://www.w3.org/TR/2001/REC-SVG-20010904/DTD/svg10.dtd">
<svg version="1.0" xmlns="http://www.w3.org/2000/svg"
 width="526.000000pt" height="539.000000pt" viewBox="0 0 526.000000 539.000000"
 preserveAspectRatio="xMidYMid meet">

<g transform="translate(0.000000,539.000000) scale(0.100000,-0.100000)"
fill="#000000" stroke="none">
<path d="M1870 4940 l0 -280 40 0 40 0 0 168 c0 168 9 221 29 172 42 -107 102
-245 110 -253 8 -8 11 10 11 60 0 72 -17 123 -119 346 -30 67 -30 67 -71 67
l-40 0 0 -280z"/>
<path d="M2293 5208 c-5 -7 -19 -35 -31 -63 -12 -27 -42 -97 -67 -154 -39 -90
-45 -113 -45 -172 0 -38 4 -69 8 -69 4 0 23 37 42 83 69 170 81 194 90 172 5
-11 9 -93 9 -183 l1 -163 38 3 37 3 0 275 0 275 -36 3 c-21 2 -40 -2 -46 -10z"/>
<path d="M2603 5194 c-37 -28 -57 -82 -48 -123 3 -17 19 -48 35 -69 l28 -40
-35 -33 c-49 -48 -63 -80 -63 -143 0 -50 3 -59 35 -91 25 -24 45 -35 65 -35
42 0 40 32 -5 74 -19 19 -35 43 -35 55 0 28 22 71 49 95 17 15 21 31 21 75 -1
31 -7 67 -15 81 -19 33 -19 71 0 96 15 20 20 70 7 78 -4 2 -22 -6 -39 -20z"/>
<path d="M2697 5213 c-14 -13 -7 -54 11 -60 62 -22 69 -75 17 -132 -31 -34
-35 -45 -35 -91 0 -46 5 -59 35 -96 19 -23 35 -50 35 -59 0 -8 -16 -25 -35
-36 -24 -15 -35 -28 -35 -44 0 -43 27 -40 97 11 22 16 24 15 50 -15 20 -22 36
-31 59 -31 17 0 33 3 37 6 3 3 -14 30 -39 60 -24 30 -44 57 -44 60 0 3 9 22
20 44 18 35 18 40 4 54 -21 21 -31 20 -44 -4 -16 -30 -44 -24 -74 14 -33 43
-32 47 2 73 43 32 65 86 59 147 -4 42 -10 55 -38 78 -32 27 -68 36 -82 21z"/>
<path d="M3178 5197 c-76 -46 -118 -134 -118 -249 0 -128 47 -226 131 -268 52
-27 59 -25 59 13 0 25 -6 36 -29 48 -48 27 -75 100 -75 199 0 102 25 170 73
198 25 13 31 24 31 50 0 39 -19 42 -72 9z"/>
<path d="M3294 5206 c-8 -21 14 -56 36 -56 10 0 22 -4 25 -10 10 -16 40 -12
58 8 23 25 22 29 -15 52 -39 23 -96 26 -104 6z"/>
<path d="M3300 4935 c-18 -22 3 -43 48 -47 l37 -3 3 -72 3 -72 -39 -11 c-69
-18 -85 -70 -21 -70 41 0 128 48 135 74 3 12 4 64 2 116 l-3 95 -76 3 c-59 2
-79 -1 -89 -13z"/>
<path d="M2515 4468 c-44 -5 -129 -23 -190 -39 -181 -50 -408 -193 -512 -322
-101 -125 -202 -295 -223 -378 -5 -19 -19 -70 -30 -114 -18 -66 -22 -110 -22
-250 0 -163 10 -248 41 -328 5 -12 15 -42 22 -67 18 -62 102 -210 172 -302 51
-68 93 -108 217 -206 102 -81 260 -152 430 -193 80 -19 387 -16 465 4 171 45
207 59 315 123 321 191 513 487 551 851 11 114 1 308 -21 378 -5 17 -21 66
-34 111 -25 80 -105 230 -155 290 -14 17 -39 48 -56 69 -46 59 -55 69 -124
125 -174 141 -355 218 -581 246 -126 15 -147 15 -265 2z m63 -219 c-20 -4 -55
-4 -80 0 -38 8 -35 9 37 9 66 0 74 -1 43 -9z m218 0 c-22 -5 -57 -5 -85 0 -42
8 -39 9 39 9 72 0 79 -1 46 -9z m-379 -25 c-3 -3 -12 -4 -19 -1 -8 3 -5 6 6 6
11 1 17 -2 13 -5z m480 0 c-3 -3 -12 -4 -19 -1 -8 3 -5 6 6 6 11 1 17 -2 13
-5z m-564 -21 c-7 -2 -19 -2 -25 0 -7 3 -2 5 12 5 14 0 19 -2 13 -5z m655 0
c-10 -2 -26 -2 -35 0 -10 3 -2 5 17 5 19 0 27 -2 18 -5z m-430 -50 c-15 -2
-42 -2 -60 0 -18 2 -6 4 27 4 33 0 48 -2 33 -4z m230 0 c-16 -2 -40 -2 -55 0
-16 2 -3 4 27 4 30 0 43 -2 28 -4z m-360 -20 c-10 -2 -26 -2 -35 0 -10 3 -2 5
17 5 19 0 27 -2 18 -5z m465 0 c-7 -2 -21 -2 -30 0 -10 3 -4 5 12 5 17 0 24
-2 18 -5z m-546 -29 c-3 -3 -12 -4 -19 -1 -8 3 -5 6 6 6 11 1 17 -2 13 -5z
m626 -1 c-7 -2 -19 -2 -25 0 -7 3 -2 5 12 5 14 0 19 -2 13 -5z m-676 -19 c-3
-3 -12 -4 -19 -1 -8 3 -5 6 6 6 11 1 17 -2 13 -5z m720 0 c-3 -3 -12 -4 -19
-1 -8 3 -5 6 6 6 11 1 17 -2 13 -5z m-364 -31 c-7 -2 -19 -2 -25 0 -7 3 -2 5
12 5 14 0 19 -2 13 -5z m-603 -19 c0 -3 -15 -20 -32 -37 -18 -18 -43 -45 -55
-61 -16 -20 -23 -24 -23 -12 0 9 5 16 10 16 6 0 10 5 10 11 0 6 17 28 38 50
35 36 52 47 52 33z m157 0 c-3 -3 -12 -4 -19 -1 -8 3 -5 6 6 6 11 1 17 -2 13
-5z m1043 -4 c0 -5 -2 -10 -4 -10 -3 0 -8 5 -11 10 -3 6 -1 10 4 10 6 0 11 -4
11 -10z m51 -41 c17 -17 28 -34 25 -37 -6 -5 -66 52 -66 63 0 11 12 3 41 -26z
m-1334 -191 c-3 -8 -6 -5 -6 6 -1 11 2 17 5 13 3 -3 4 -12 1 -19z m1400 -80
c-3 -8 -6 -5 -6 6 -1 11 2 17 5 13 3 -3 4 -12 1 -19z m-1470 -70 c-3 -7 -5 -2
-5 12 0 14 2 19 5 13 2 -7 2 -19 0 -25z m1520 -65 c-3 -10 -5 -4 -5 12 0 17 2
24 5 18 2 -7 2 -21 0 -30z m100 5 c-3 -7 -5 -2 -5 12 0 14 2 19 5 13 2 -7 2
-19 0 -25z m-1740 -20 c-3 -7 -5 -2 -5 12 0 14 2 19 5 13 2 -7 2 -19 0 -25z
m1760 -135 c-2 -21 -4 -4 -4 37 0 41 2 58 4 38 2 -21 2 -55 0 -75z m-87 63 c0
-14 -4 -28 -10 -31 -6 -4 -10 7 -10 24 0 17 5 31 10 31 6 0 10 -11 10 -24z
m-1603 -208 c-1 -40 -3 -8 -3 72 0 80 2 112 3 73 2 -40 2 -106 0 -145z m-100
125 c-2 -16 -4 -3 -4 27 0 30 2 43 4 28 2 -16 2 -40 0 -55z m952 -9 c27 -35
26 -59 -4 -89 -31 -32 -66 -32 -99 1 -31 32 -32 47 -5 85 28 39 78 41 108 3z
m-752 -51 c-3 -10 -5 -2 -5 17 0 19 2 27 5 18 2 -10 2 -26 0 -35z m-200 -90
c-2 -16 -4 -5 -4 22 0 28 2 40 4 28 2 -13 2 -35 0 -50z m1790 -50 c-2 -21 -4
-4 -4 37 0 41 2 58 4 38 2 -21 2 -55 0 -75z m-87 21 c0 -19 -4 -34 -10 -34 -5
0 -10 18 -10 41 0 24 4 38 10 34 6 -3 10 -22 10 -41z m-1570 -90 c0 -8 -4 -14
-10 -14 -5 0 -10 9 -10 21 0 11 5 17 10 14 6 -3 10 -13 10 -21z m-103 -16 c-3
-7 -5 -2 -5 12 0 14 2 19 5 13 2 -7 2 -19 0 -25z m1640 -15 c-3 -10 -5 -2 -5
17 0 19 2 27 5 18 2 -10 2 -26 0 -35z m103 5 c0 -18 -2 -20 -9 -8 -6 8 -7 18
-5 22 9 14 14 9 14 -14z m-1723 -75 c-3 -10 -5 -2 -5 17 0 19 2 27 5 18 2 -10
2 -26 0 -35z m100 10 c-3 -10 -5 -4 -5 12 0 17 2 24 5 18 2 -7 2 -21 0 -30z
m1590 -30 c-3 -10 -5 -4 -5 12 0 17 2 24 5 18 2 -7 2 -21 0 -30z m-1563 -8 c3
-8 1 -15 -4 -15 -6 0 -10 7 -10 15 0 8 2 15 4 15 2 0 6 -7 10 -15z m1543 -47
c-3 -8 -6 -5 -6 6 -1 11 2 17 5 13 3 -3 4 -12 1 -19z m-1520 -10 c-3 -8 -6 -5
-6 6 -1 11 2 17 5 13 3 -3 4 -12 1 -19z m-100 -20 c-3 -8 -6 -5 -6 6 -1 11 2
17 5 13 3 -3 4 -12 1 -19z m1570 -60 c-3 -8 -6 -5 -6 6 -1 11 2 17 5 13 3 -3
4 -12 1 -19z m-23 -33 c-4 -8 -8 -15 -10 -15 -2 0 -4 7 -4 15 0 8 4 15 10 15
5 0 7 -7 4 -15z m-27 -37 c-3 -8 -6 -5 -6 6 -1 11 2 17 5 13 3 -3 4 -12 1 -19z
m-17 -18 c0 -5 -5 -10 -11 -10 -5 0 -7 5 -4 10 3 6 8 10 11 10 2 0 4 -4 4 -10z
m-32 -34 c-10 -7 -18 -16 -18 -20 0 -9 -26 -36 -34 -36 -3 0 -22 -16 -42 -35
-19 -19 -41 -35 -47 -35 -6 0 22 31 63 70 41 38 80 69 85 69 6 0 2 -6 -7 -13z
m-1307 -23 c14 -18 78 -70 102 -85 6 -4 8 -10 5 -13 -10 -10 -138 91 -138 109
0 12 16 6 31 -11z m206 -49 c-3 -3 -12 -4 -19 -1 -8 3 -5 6 6 6 11 1 17 -2 13
-5z m880 0 c-3 -3 -12 -4 -19 -1 -8 3 -5 6 6 6 11 1 17 -2 13 -5z m-790 -50
c-3 -3 -12 -4 -19 -1 -8 3 -5 6 6 6 11 1 17 -2 13 -5z m700 0 c-3 -3 -12 -4
-19 -1 -8 3 -5 6 6 6 11 1 17 -2 13 -5z m-554 -51 c-7 -2 -21 -2 -30 0 -10 3
-4 5 12 5 17 0 24 -2 18 -5z m414 1 c-3 -3 -12 -4 -19 -1 -8 3 -5 6 6 6 11 1
17 -2 13 -5z m-630 -20 c-3 -3 -12 -4 -19 -1 -8 3 -5 6 6 6 11 1 17 -2 13 -5z
m471 -1 c-38 -2 -98 -2 -135 0 -38 2 -7 3 67 3 74 0 105 -1 68 -3z m-345 -50
c-7 -2 -21 -2 -30 0 -10 3 -4 5 12 5 17 0 24 -2 18 -5z m605 0 c-10 -2 -26 -2
-35 0 -10 3 -2 5 17 5 19 0 27 -2 18 -5z m-528 -23 c0 -5 -7 -7 -15 -4 -8 4
-15 8 -15 10 0 2 7 4 15 4 8 0 15 -4 15 -10z m440 0 c0 -5 -7 -10 -15 -10 -8
0 -15 5 -15 10 0 6 7 10 15 10 8 0 15 -4 15 -10z m-282 -27 c-15 -2 -42 -2
-60 0 -18 2 -6 4 27 4 33 0 48 -2 33 -4z m160 0 c-15 -2 -42 -2 -60 0 -18 2
-6 4 27 4 33 0 48 -2 33 -4z"/>
<path d="M3981 4283 c12 -27 26 -56 30 -65 5 -10 9 -29 9 -42 0 -14 4 -27 9
-31 6 -3 13 -27 16 -53 3 -26 10 -55 16 -64 5 -10 9 -27 9 -37 0 -38 -23 -35
-62 7 -21 23 -42 42 -46 42 -4 0 -19 11 -34 25 -15 14 -30 25 -33 25 -10 0
-78 52 -112 87 -18 17 -33 30 -33 28 0 -3 12 -30 27 -62 28 -59 109 -145 292
-311 75 -68 81 -72 76 -45 -2 15 -7 98 -10 184 -5 146 -7 160 -34 213 -25 51
-63 99 -105 134 -30 24 -35 11 -15 -35z"/>
<path d="M1221 4245 c-33 -36 -63 -78 -66 -93 -4 -15 -10 -35 -16 -44 -5 -10
-9 -99 -9 -199 l0 -182 28 39 c16 22 48 55 72 74 23 19 57 49 74 65 18 17 44
39 57 51 60 51 149 183 149 221 0 8 -18 -4 -42 -27 -24 -24 -73 -67 -110 -96
-37 -30 -88 -79 -114 -109 -26 -30 -53 -55 -60 -55 -22 0 -26 19 -10 47 19 36
66 176 66 199 0 28 23 95 58 167 2 4 -1 7 -6 7 -5 0 -37 -29 -71 -65z"/>
<path d="M1020 3987 c-53 -110 -71 -229 -50 -327 15 -73 42 -163 52 -174 4 -6
8 -20 8 -32 0 -13 4 -25 9 -28 4 -3 11 -24 15 -46 4 -26 11 -40 21 -40 8 0 15
7 15 14 0 8 10 34 23 58 24 44 127 209 137 218 12 11 57 88 74 125 9 22 21 48
26 57 6 10 10 27 10 37 0 21 4 24 -123 -96 -42 -39 -107 -135 -107 -156 0 -7
-5 -18 -11 -24 -6 -6 -14 -26 -18 -45 -14 -70 -26 -22 -33 134 -4 90 -11 199
-16 243 -7 61 -6 88 5 114 15 39 15 41 6 41 -5 0 -24 -33 -43 -73z"/>
<path d="M4220 3854 c0 -227 -6 -307 -24 -301 -6 2 -23 29 -39 61 -35 70 -49
88 -164 203 -51 51 -93 86 -93 78 0 -8 5 -15 10 -15 6 0 10 -7 10 -16 0 -27
86 -199 118 -236 16 -18 36 -47 45 -64 9 -17 23 -36 32 -44 9 -7 34 -51 56
-97 41 -87 59 -103 59 -54 0 17 5 33 10 36 6 3 10 18 10 33 0 15 7 40 15 56 8
15 15 40 15 55 0 15 6 33 13 40 16 16 16 274 0 316 -6 17 -14 41 -17 55 -3 14
-17 43 -30 65 l-25 40 -1 -211z"/>
<path d="M4366 3609 c-2 -8 -7 -34 -11 -59 -3 -25 -22 -90 -41 -145 -20 -55
-48 -134 -62 -175 -24 -69 -40 -96 -51 -85 -2 3 -7 27 -12 54 -4 27 -24 85
-45 128 -36 75 -111 203 -125 213 -4 3 -9 14 -12 25 -10 40 -7 -77 3 -123 6
-26 15 -69 21 -97 6 -27 16 -70 24 -95 7 -25 18 -65 25 -90 7 -25 17 -58 23
-74 6 -16 13 -69 16 -120 9 -138 9 -137 172 99 52 76 66 109 101 240 19 73 16
265 -5 295 -12 17 -17 20 -21 9z"/>
<path d="M884 3545 c-3 -14 -4 -83 -2 -153 4 -122 6 -131 45 -222 42 -97 198
-323 218 -317 6 2 15 48 21 103 6 54 20 126 31 159 19 58 30 97 52 180 5 22
15 77 20 122 6 45 13 93 17 107 4 16 2 26 -4 26 -19 0 -43 -32 -71 -94 -114
-249 -111 -239 -111 -324 0 -110 -14 -120 -35 -25 -9 43 -37 125 -60 183 -61
149 -85 220 -85 252 0 36 -27 38 -36 3z"/>
<path d="M3990 3103 c-13 -52 -21 -115 -39 -288 -12 -112 -25 -196 -41 -250
-4 -16 -11 -46 -15 -65 -4 -19 -12 -41 -17 -47 -55 -68 234 123 341 225 110
105 191 271 191 389 0 41 -16 51 -25 16 -10 -42 -24 -60 -199 -258 -19 -22
-57 -68 -83 -102 -52 -68 -69 -78 -58 -35 13 49 17 226 7 277 -6 28 -14 80
-17 118 -8 81 -28 90 -45 20z m50 -462 c0 -6 -4 -13 -10 -16 -5 -3 -10 1 -10
9 0 9 5 16 10 16 6 0 10 -4 10 -9z"/>
<path d="M1265 3118 c-6 -18 -23 -116 -35 -208 -14 -103 2 -238 32 -274 4 -6
8 -16 8 -23 0 -28 -20 -11 -54 46 -20 33 -74 99 -119 148 -144 152 -164 177
-188 223 l-24 45 -3 -58 c-5 -103 58 -237 161 -339 50 -50 197 -159 325 -241
48 -31 50 -27 23 54 -11 31 -26 110 -35 175 -24 176 -35 250 -51 334 -8 42
-15 85 -15 97 0 25 -18 40 -25 21z"/>
<path d="M3834 2757 c-61 -92 -97 -168 -142 -302 -42 -124 -95 -231 -138 -276
-42 -44 -34 -46 86 -20 25 5 70 14 101 19 214 39 416 185 507 367 35 71 56
134 48 142 -3 4 -6 -1 -6 -10 0 -10 -4 -17 -9 -17 -5 0 -19 -15 -30 -34 -30
-48 -147 -134 -266 -197 -55 -29 -120 -66 -145 -83 -72 -49 -90 -57 -90 -40 0
8 11 31 24 52 30 46 59 132 81 237 9 44 21 96 26 116 11 44 12 109 2 109 -5 0
-27 -28 -49 -63z"/>
<path d="M1397 2783 c-4 -6 2 -53 13 -104 11 -52 25 -115 30 -140 12 -61 46
-162 71 -211 11 -21 15 -38 10 -38 -5 0 -64 32 -130 70 -67 39 -124 70 -126
70 -20 0 -162 101 -204 145 -29 31 -56 54 -59 51 -3 -3 9 -36 26 -73 30 -66
102 -162 170 -229 75 -74 227 -138 387 -165 28 -4 71 -13 96 -20 26 -6 55 -9
65 -5 16 6 16 8 -4 26 -37 35 -101 152 -132 245 -60 175 -193 411 -213 378z"/>
<path d="M3596 2420 c-42 -32 -83 -68 -222 -200 -94 -90 -164 -131 -253 -153
-28 -6 -51 -14 -51 -17 0 -3 33 -13 73 -23 39 -10 88 -22 107 -27 158 -41 346
-52 438 -25 71 22 156 69 221 123 97 83 147 178 53 102 -53 -43 -163 -79 -274
-90 -51 -5 -133 -14 -182 -20 -102 -12 -125 -3 -73 28 45 26 103 104 162 215
56 107 56 128 1 87z m-213 -347 c-7 -2 -21 -2 -30 0 -10 3 -4 5 12 5 17 0 24
-2 18 -5z"/>
<path d="M1640 2424 c0 -3 15 -31 33 -62 18 -31 44 -79 57 -106 35 -69 127
-161 169 -171 29 -6 32 -9 17 -17 -11 -6 -34 -6 -64 1 -26 5 -81 13 -122 16
-233 17 -337 43 -417 102 -56 43 -47 6 14 -53 150 -145 305 -203 483 -182 128
15 335 59 372 79 22 12 15 29 -12 29 -25 0 -136 52 -180 84 -19 15 -78 67
-133 118 -126 117 -188 168 -204 168 -7 0 -13 -3 -13 -6z"/>
<path d="M2735 2039 c-55 -12 -66 -12 -245 -3 -121 6 -199 -5 -275 -36 -263
-109 -332 -130 -423 -130 -47 0 -127 16 -154 31 -10 5 -28 9 -40 9 -20 -1 -18
-5 20 -39 58 -51 152 -96 233 -111 54 -11 81 -11 145 -1 98 16 153 41 291 128
129 83 171 103 211 103 49 0 47 -17 -5 -41 -46 -21 -240 -148 -274 -179 -36
-34 -90 -135 -107 -202 -18 -69 -25 -80 -85 -133 -33 -30 -33 -65 1 -80 27
-12 45 -67 48 -145 1 -43 10 -72 41 -130 73 -137 81 -154 108 -230 36 -100 52
-135 68 -149 8 -6 52 -12 99 -13 74 -1 89 1 118 22 l32 23 -5 76 c-14 172 -93
431 -145 472 -34 27 -89 21 -141 -15 -44 -31 -71 -34 -71 -7 0 11 5 23 10 26
19 12 10 57 -16 80 -26 23 -26 23 -11 66 8 24 20 64 27 89 25 92 71 157 171
240 49 42 52 43 137 47 107 6 191 6 305 1 l88 -4 90 -95 c89 -93 114 -132 130
-199 4 -19 13 -54 20 -78 11 -40 10 -45 -12 -68 -21 -22 -22 -29 -13 -64 18
-64 -4 -71 -75 -23 -46 31 -101 31 -132 -1 -29 -30 -73 -150 -109 -296 -60
-246 -56 -264 66 -296 130 -34 152 -15 230 196 16 41 41 98 56 125 79 142 90
179 89 318 0 11 11 22 29 29 16 5 32 18 35 28 7 22 -21 70 -40 70 -21 0 -51
45 -64 97 -25 95 -57 156 -106 201 -83 77 -198 162 -261 192 -35 18 -64 36
-64 42 0 7 20 9 53 6 44 -4 71 -17 177 -84 69 -44 139 -85 155 -93 61 -27 139
-41 228 -41 125 0 180 20 296 105 73 54 71 77 -4 40 -44 -21 -64 -24 -164 -25
-125 0 -135 2 -296 68 -60 24 -139 53 -175 64 -77 23 -225 31 -295 17z"/>
<path d="M1821 398 c-15 -28 -19 -44 -11 -52 5 -5 10 -38 10 -73 0 -35 4 -63
10 -63 6 0 10 26 10 59 0 40 5 65 15 75 9 9 11 17 5 21 -16 10 -11 33 12 55
l22 20 -25 0 c-19 0 -31 -10 -48 -42z"/>
<path d="M2990 430 c0 -5 4 -10 9 -10 6 0 13 5 16 10 3 6 -1 10 -9 10 -9 0
-16 -4 -16 -10z"/>
<path d="M3849 407 c-4 -138 -2 -197 7 -199 13 -4 17 213 4 226 -7 7 -10 -1
-11 -27z"/>
<path d="M306 395 c-10 -15 -16 -46 -16 -83 0 -52 3 -61 30 -87 38 -37 51 -25
16 15 -36 43 -37 110 -1 146 30 30 31 34 6 34 -10 0 -26 -11 -35 -25z"/>
<path d="M387 414 c-3 -4 5 -15 18 -26 33 -26 35 -105 4 -150 -29 -41 -18 -45
20 -8 26 27 31 39 31 81 0 67 -45 130 -73 103z"/>
<path d="M1194 403 c-3 -10 -10 -26 -15 -35 -5 -11 -5 -19 1 -23 6 -3 10 -29
10 -56 0 -60 13 -89 40 -89 23 0 27 18 5 26 -18 7 -21 104 -5 120 7 7 5 21 -6
42 -18 37 -22 39 -30 15z"/>
<path d="M2368 415 c-8 -9 3 -199 13 -210 5 -5 9 13 9 44 0 31 7 64 17 81 14
24 14 33 3 59 -11 28 -29 39 -42 26z"/>
<path d="M2536 413 c-13 -14 -36 -75 -36 -97 0 -20 1 -20 20 4 l19 25 3 -70
c5 -109 23 -80 23 37 0 95 -8 122 -29 101z"/>
<path d="M4040 388 c-32 -53 -21 -142 22 -169 27 -18 28 -7 2 37 -24 41 -26
49 -15 84 6 20 18 43 26 50 19 16 19 30 0 30 -8 0 -24 -15 -35 -32z"/>
<path d="M4115 410 c-4 -6 5 -10 19 -10 14 0 26 5 26 10 0 6 -9 10 -19 10 -11
0 -23 -4 -26 -10z"/>
<path d="M580 360 c0 -5 11 -12 25 -16 22 -5 24 -11 27 -70 4 -84 22 -88 26
-5 2 49 -1 68 -14 82 -18 20 -64 26 -64 9z"/>
<path d="M746 351 c-25 -28 -21 -102 7 -129 24 -22 77 -30 77 -12 0 6 -8 10
-18 10 -10 0 -28 7 -40 16 -27 18 -30 78 -6 105 8 9 11 20 6 23 -5 3 -17 -3
-26 -13z"/>
<path d="M1024 346 c-7 -29 1 -60 15 -52 10 7 9 61 -1 71 -4 4 -10 -4 -14 -19z"/>
<path d="M1075 360 c-4 -6 3 -10 14 -10 25 0 27 6 6 13 -8 4 -17 2 -20 -3z"/>
<path d="M1335 350 c-25 -28 -22 -107 5 -132 23 -22 35 -8 15 18 -19 25 -19
74 0 101 20 28 3 38 -20 13z"/>
<path d="M1396 361 c-3 -5 1 -11 9 -14 33 -13 27 -105 -9 -129 -7 -5 -4 -8 7
-8 44 0 73 72 47 120 -13 24 -47 43 -54 31z"/>
<path d="M1566 363 c-3 -4 8 -12 26 -17 29 -10 33 -16 36 -52 3 -47 -15 -74
-51 -74 -18 0 -19 -2 -7 -10 27 -17 57 -11 75 16 22 34 22 100 -1 125 -17 19
-64 26 -78 12z"/>
<path d="M2196 361 c-3 -5 0 -11 8 -14 15 -6 26 1 26 15 0 11 -27 10 -34 -1z"/>
<path d="M2643 363 c-17 -6 -17 -100 0 -133 8 -16 23 -26 40 -28 31 -4 37 14
7 23 -22 7 -28 26 -32 96 -2 31 -7 44 -15 42z"/>
<path d="M2745 358 c-10 -24 -1 -153 10 -153 13 0 19 145 6 158 -7 7 -12 5
-16 -5z"/>
<path d="M2841 351 c-15 -27 -14 -48 3 -54 10 -4 15 4 18 29 5 41 -6 53 -21
25z"/>
<path d="M2890 360 c0 -5 10 -10 23 -10 18 0 19 2 7 10 -19 13 -30 13 -30 0z"/>
<path d="M3375 360 c-4 -6 6 -10 22 -10 47 0 53 -11 48 -73 -4 -57 8 -83 26
-56 12 17 1 119 -13 137 -12 14 -74 16 -83 2z"/>
<path d="M3595 360 c-3 -5 1 -10 9 -10 31 0 46 -30 46 -91 0 -33 4 -59 10 -59
15 0 13 143 -2 158 -15 15 -54 16 -63 2z"/>
<path d="M3756 354 c-48 -47 -20 -154 41 -154 28 0 30 16 3 25 -28 9 -43 42
-36 80 5 27 13 35 36 40 17 4 28 11 24 16 -9 14 -51 10 -68 -7z"/>
<path d="M4265 361 c-3 -5 9 -11 27 -13 l33 -3 3 -68 c4 -88 26 -88 30 0 2 45
-1 65 -13 77 -18 17 -70 22 -80 7z"/>
<path d="M4435 358 c-10 -24 -1 -153 10 -153 13 0 19 145 6 158 -7 7 -12 5
-16 -5z"/>
<path d="M4480 361 c0 -5 9 -12 19 -16 22 -7 31 -33 31 -97 0 -27 5 -48 10
-48 15 0 13 143 -2 158 -14 14 -58 16 -58 3z"/>
<path d="M4580 361 c0 -5 9 -12 19 -16 22 -7 31 -33 31 -92 0 -24 5 -43 10
-43 15 0 12 122 -4 143 -14 18 -56 24 -56 8z"/>
<path d="M4742 350 c-21 -20 -31 -60 -14 -60 7 1 44 72 38 77 -1 1 -12 -6 -24
-17z"/>
<path d="M4995 360 c-3 -5 1 -10 9 -10 9 0 16 5 16 10 0 6 -4 10 -9 10 -6 0
-13 -4 -16 -10z"/>
<path d="M530 286 c0 -41 5 -78 10 -81 6 -4 10 18 10 59 0 35 3 71 6 80 4 11
1 16 -10 16 -13 0 -16 -13 -16 -74z"/>
<path d="M816 352 c6 -4 14 -17 18 -29 6 -19 3 -22 -26 -25 -38 -3 -44 -21 -9
-26 38 -6 71 7 71 26 0 21 -35 62 -53 62 -9 0 -9 -2 -1 -8z"/>
<path d="M1520 243 c0 -71 4 -113 9 -108 17 18 18 225 1 225 -6 0 -10 -46 -10
-117z"/>
<path d="M1948 338 c-36 -45 -9 -128 41 -128 10 0 12 3 5 8 -46 30 -42 116 6
135 9 3 6 6 -10 6 -14 0 -32 -9 -42 -21z"/>
<path d="M2034 338 c19 -26 21 -79 5 -95 -22 -22 -4 -34 19 -13 37 35 20 130
-24 130 -13 0 -13 -3 0 -22z"/>
<path d="M2150 286 c0 -41 5 -78 10 -81 6 -4 10 18 10 59 0 35 3 71 6 80 4 11
1 16 -10 16 -13 0 -16 -13 -16 -74z"/>
<path d="M2990 285 c0 -60 3 -75 15 -75 12 0 15 15 15 75 0 60 -3 75 -15 75
-12 0 -15 -15 -15 -75z"/>
<path d="M3100 342 c-23 -25 -20 -98 5 -116 18 -13 20 -13 23 1 2 8 -1 20 -7
26 -16 16 -13 54 5 82 13 20 13 25 3 25 -8 -1 -21 -8 -29 -18z"/>
<path d="M3550 285 c0 -98 17 -97 22 0 2 55 0 75 -9 75 -9 0 -13 -22 -13 -75z"/>
<path d="M4813 345 c24 -23 21 -45 -5 -45 -13 0 -29 -4 -36 -9 -11 -7 -10 -10
3 -15 30 -11 75 -6 81 8 8 22 -18 70 -40 74 -18 4 -19 3 -3 -13z"/>
<path d="M4925 339 c-5 -14 0 -27 14 -40 27 -26 33 -24 19 6 -8 19 -8 28 2 40
10 13 9 15 -8 15 -12 0 -23 -9 -27 -21z"/>
<path d="M2420 321 c0 -16 12 -41 20 -41 4 0 5 11 2 25 -4 23 -22 36 -22 16z"/>
<path d="M4126 311 c-3 -5 3 -11 15 -14 32 -8 23 -69 -11 -78 -22 -5 -23 -7
-7 -14 13 -5 24 -1 38 13 24 26 26 87 3 96 -22 8 -32 8 -38 -3z"/>
<path d="M2477 293 c-11 -10 -8 -43 3 -43 6 0 10 11 10 25 0 26 -2 29 -13 18z"/>
<path d="M1083 276 c9 -7 17 -23 17 -35 0 -13 -7 -21 -17 -22 -12 0 -13 -2 -5
-6 16 -6 42 15 42 34 0 18 -24 43 -42 43 -9 -1 -7 -5 5 -14z"/>
<path d="M2893 279 c19 -11 24 -59 5 -59 -6 0 -9 -2 -6 -5 12 -12 38 9 38 29
0 26 -18 46 -39 46 -13 -1 -13 -2 2 -11z"/>
<path d="M3358 265 c-10 -22 -9 -29 10 -47 12 -12 25 -19 29 -15 3 4 1 13 -5
19 -17 17 -15 45 6 57 15 9 15 10 -6 11 -15 0 -26 -9 -34 -25z"/>
<path d="M4252 278 c-17 -17 -15 -53 3 -68 12 -10 19 -10 27 -2 8 8 7 13 -5
18 -22 8 -22 33 1 50 14 11 15 13 2 14 -9 0 -21 -5 -28 -12z"/>
<path d="M4998 249 c4 -37 6 -40 20 -25 14 13 14 19 2 41 -19 36 -26 31 -22
-16z"/>
<path d="M4728 274 c-8 -8 1 -34 20 -56 16 -19 67 -24 77 -8 3 6 -3 10 -15 10
-30 0 -60 18 -68 41 -4 11 -11 17 -14 13z"/>
<path d="M1025 210 c3 -5 10 -10 16 -10 5 0 9 5 9 10 0 6 -7 10 -16 10 -8 0
-12 -4 -9 -10z"/>
<path d="M2840 210 c0 -5 4 -10 9 -10 6 0 13 5 16 10 3 6 -1 10 -9 10 -9 0
-16 -4 -16 -10z"/>
<path d="M4938 208 c9 -9 15 -9 24 0 9 9 7 12 -12 12 -19 0 -21 -3 -12 -12z"/>
</g>
</svg>
